<svg width="26" height="24" viewBox="0 0 26 24" fill="none" xmlns="http://www.w3.org/2000/svg">
<path d="M7.53289 15.0011V16.4995H22.534V18H6.03236V13.5005H7.23448L4.53818 4.49947L3.64083 1.50053H0.802734V0H4.74982L6.10009 4.49947H25.5329L22.534 15.0011H7.53289Z" fill="white"/>
<path d="M21.0333 21.7497C21.0333 22.372 20.7815 22.9328 20.3751 23.3413C19.9667 23.7476 19.4037 23.9995 18.7836 23.9995C18.1635 23.9995 17.5984 23.7476 17.1899 23.3413C16.7836 22.9328 16.5317 22.372 16.5317 21.7497C16.5317 20.5074 17.5391 19.5 18.7836 19.5C19.4037 19.5 19.9667 19.7519 20.3751 20.1582C20.7815 20.5667 21.0333 21.1275 21.0333 21.7497Z" fill="white"/>
<path d="M10.5319 21.7497C10.5319 22.372 10.2801 22.9328 9.87374 23.3413C9.46528 23.7476 8.90231 23.9995 8.28221 23.9995C7.6621 23.9995 7.09914 23.7476 6.69067 23.3413C6.28432 22.9328 6.03247 22.372 6.03247 21.7497C6.03247 20.5074 7.03988 19.5 8.28221 19.5C8.90231 19.5 9.46528 19.7519 9.87374 20.1582C10.2801 20.5667 10.5319 21.1275 10.5319 21.7497Z" fill="white"/>
</svg>
