<svg width="17" height="16" viewBox="0 0 17 16" fill="none" xmlns="http://www.w3.org/2000/svg">
<path d="M4.28785 9.00034H4.28644L2.48608 2.99963H2.49032L4.28785 9.00034Z" fill="#1B3F8D"/>
<path d="M4.48677 10.0007V10.9996H14.4875V12H3.48642V9.00035H4.28783L2.4903 2.99965L1.89206 1.00035H0V0H2.63139L3.53157 2.99965H16.4868L14.4875 10.0007H4.48677Z" fill="#1B3F8D"/>
<path d="M13.4871 14.5002C13.4871 14.915 13.3192 15.2889 13.0483 15.5612C12.776 15.8321 12.4007 16 11.9873 16C11.5739 16 11.1972 15.8321 10.9249 15.5612C10.654 15.2889 10.4861 14.915 10.4861 14.5002C10.4861 13.672 11.1577 13.0004 11.9873 13.0004C12.4007 13.0004 12.776 13.1683 13.0483 13.4392C13.3192 13.7115 13.4871 14.0854 13.4871 14.5002Z" fill="#1B3F8D"/>
<path d="M6.4861 14.5002C6.4861 14.915 6.3182 15.2889 6.0473 15.5612C5.77499 15.8321 5.39968 16 4.98627 16C4.57287 16 4.19756 15.8321 3.92525 15.5612C3.65435 15.2889 3.48645 14.915 3.48645 14.5002C3.48645 13.672 4.15806 13.0004 4.98627 13.0004C5.39968 13.0004 5.77499 13.1683 6.0473 13.4392C6.3182 13.7115 6.4861 14.0854 6.4861 14.5002Z" fill="#1B3F8D"/>
</svg>
