<svg width="24" height="24" viewBox="0 0 24 24" fill="none" xmlns="http://www.w3.org/2000/svg">
<path d="M18.8496 0H5.14625C2.30003 0 -0.000244141 2.30755 -0.000244141 5.15014V18.8535C-0.000244141 21.6924 2.30003 24 5.14625 24H18.8496C21.6886 24 23.9961 21.6924 23.9961 18.8535V5.15014C23.9961 2.30755 21.6886 0 18.8496 0ZM21.0261 15.5669C21.0261 18.5842 18.5803 21.0227 15.563 21.0227H8.4256C5.41195 21.0227 2.96973 18.5805 2.96973 15.5669V8.42948C2.96973 5.41583 5.41559 2.97361 8.4256 2.97361H15.563C18.5803 2.97361 21.0261 5.41947 21.0261 8.42948V15.5669Z" fill="#1B3F8D"/>
<path d="M14.0306 5.37305H9.96873C7.43188 5.37305 5.37183 7.4331 5.37183 9.96995V14.0282C5.37183 16.5723 7.43188 18.6287 9.96873 18.6287H14.0306C16.5675 18.6287 18.6275 16.5687 18.6275 14.0282V9.96995C18.6275 7.4331 16.5675 5.37305 14.0306 5.37305ZM11.996 16.2338C9.663 16.2338 7.76673 14.3376 7.76673 12.0009C7.76673 9.66422 9.663 7.77159 11.996 7.77159C14.3291 7.77159 16.229 9.66422 16.229 12.0009C16.229 14.3376 14.3327 16.2338 11.996 16.2338ZM16.1161 8.80526C15.5483 8.80526 15.0825 8.33938 15.0825 7.77159C15.0825 7.2038 15.5483 6.73792 16.1161 6.73792C16.6839 6.73792 17.1534 7.20016 17.1534 7.77159C17.1534 8.34302 16.6876 8.80526 16.1161 8.80526Z" fill="#1B3F8D"/>
<path d="M14.2091 12.0003C14.2091 13.2232 13.2191 14.2096 11.9961 14.2096C10.7732 14.2096 9.78687 13.2232 9.78687 12.0003C9.78687 10.7774 10.7769 9.79102 11.9961 9.79102C13.2154 9.79102 14.2091 10.781 14.2091 12.0003Z" fill="#1B3F8D"/>
</svg>
