<svg width="24" height="24" viewBox="0 0 24 24" fill="none" xmlns="http://www.w3.org/2000/svg">
<path d="M18.8499 0H5.1465C2.30027 0 0 2.30755 0 5.15014V18.8535C0 21.6924 2.30027 24 5.1465 24H18.8499C21.6888 24 23.9964 21.6924 23.9964 18.8535V5.15014C23.9964 2.30755 21.6888 0 18.8499 0ZM21.0264 15.5669C21.0264 18.5842 18.5805 21.0227 15.5632 21.0227H8.42584C5.41219 21.0227 2.96997 18.5805 2.96997 15.5669V8.42948C2.96997 5.41583 5.41583 2.97361 8.42584 2.97361H15.5632C18.5805 2.97361 21.0264 5.41947 21.0264 8.42948V15.5669Z" fill="white"/>
<path d="M14.0309 5.37305H9.96898C7.43212 5.37305 5.37207 7.4331 5.37207 9.96995V14.0282C5.37207 16.5723 7.43212 18.6287 9.96898 18.6287H14.0309C16.5677 18.6287 18.6278 16.5687 18.6278 14.0282V9.96995C18.6278 7.4331 16.5677 5.37305 14.0309 5.37305ZM11.9963 16.2338C9.66324 16.2338 7.76697 14.3376 7.76697 12.0009C7.76697 9.66422 9.66324 7.77159 11.9963 7.77159C14.3293 7.77159 16.2292 9.66422 16.2292 12.0009C16.2292 14.3376 14.3329 16.2338 11.9963 16.2338ZM16.1164 8.80526C15.5486 8.80526 15.0827 8.33938 15.0827 7.77159C15.0827 7.2038 15.5486 6.73792 16.1164 6.73792C16.6842 6.73792 17.1537 7.20016 17.1537 7.77159C17.1537 8.34302 16.6878 8.80526 16.1164 8.80526Z" fill="white"/>
<path d="M14.2093 12.0003C14.2093 13.2232 13.2193 14.2096 11.9964 14.2096C10.7735 14.2096 9.78711 13.2232 9.78711 12.0003C9.78711 10.7774 10.7771 9.79102 11.9964 9.79102C13.2157 9.79102 14.2093 10.781 14.2093 12.0003Z" fill="white"/>
</svg>
