<svg width="150" height="48" viewBox="0 0 150 48" fill="none" xmlns="http://www.w3.org/2000/svg">
<path d="M23.191 0V9.09657H12.915V13.1427H22.2159V21.6204H12.915V33.286H0V0H23.191Z" fill="white"/>
<path d="M35.6798 26.9164H43.3809V33.2805H26.6357V9.98438H42.8671V16.3485H35.6739V18.6547H42.2949V24.6043H35.6739V26.9105L35.6798 26.9164Z" fill="white"/>
<path d="M68.4111 33.2863H58.3512L54.2759 24.8378V33.2863H45.4771V9.98438H57.8257C59.5656 9.98438 61.0895 10.288 62.3915 10.8894C63.6994 11.4966 64.7153 12.3373 65.4451 13.4175C66.175 14.5093 66.5428 15.7763 66.5428 17.2184C66.5428 18.6606 66.175 19.9217 65.4451 21.0077C64.7153 22.0995 63.6935 22.952 62.3915 23.5533L68.4053 33.2746L68.4111 33.2863ZM54.2817 16.1266V19.6298H54.9356C55.8698 19.6298 56.5354 19.4955 56.9383 19.2327C57.3411 18.97 57.5455 18.5146 57.5455 17.8782C57.5455 17.2418 57.3411 16.7922 56.9383 16.5236C56.5354 16.2609 55.864 16.1266 54.9356 16.1266H54.2817Z" fill="white"/>
<path d="M99.0464 5.54669C100.197 7.29244 100.775 9.31844 100.775 11.6364C100.775 13.9543 100.197 15.9861 99.0464 17.7319C97.8962 19.4893 96.2789 20.8555 94.2062 21.8248C92.1452 22.794 89.7338 23.2786 86.978 23.2786H82.8384V33.2801H70.9685V0H86.9722C89.728 0 92.1393 0.484605 94.2004 1.45382C96.2789 2.42303 97.8904 3.78926 99.0406 5.54669H99.0464ZM87.4743 13.7558C88.1866 13.3296 88.5427 12.6114 88.5427 11.5955C88.5427 10.5796 88.1866 9.85559 87.4743 9.41185C86.7795 8.98564 85.6176 8.77544 83.9945 8.77544H82.8326V14.4156H83.9945C85.6176 14.4156 86.7737 14.1937 87.4743 13.7558Z" fill="white"/>
<path d="M126.003 33.2863H115.943L111.868 24.8378V33.2863H103.069V9.98438H115.418C117.158 9.98438 118.682 10.288 119.984 10.8894C121.292 11.4966 122.307 12.3373 123.037 13.4175C123.767 14.5093 124.135 15.7763 124.135 17.2184C124.135 18.6606 123.767 19.9217 123.037 21.0077C122.307 22.0995 121.286 22.952 119.984 23.5533L125.997 33.2746L126.003 33.2863ZM111.868 16.1266V19.6298H112.522C113.456 19.6298 114.122 19.4955 114.525 19.2327C114.927 18.97 115.132 18.5146 115.132 17.8782C115.132 17.2418 114.927 16.7922 114.525 16.5236C114.122 16.2609 113.45 16.1266 112.522 16.1266H111.868Z" fill="white"/>
<path d="M125.011 21.7608C125.011 19.8924 125.332 18.1992 125.98 16.6753C126.628 15.1515 127.521 13.8494 128.66 12.7693C129.798 11.6892 131.124 10.8601 132.624 10.2762C134.125 9.69818 135.725 9.40625 137.424 9.40625C139.123 9.40625 140.734 9.69818 142.241 10.2762C143.741 10.8542 145.061 11.6833 146.193 12.7693C147.326 13.8494 148.219 15.1515 148.867 16.6753C149.515 18.1992 149.837 19.8924 149.837 21.7608C149.837 23.6291 149.515 25.3632 148.873 26.8754C148.231 28.3876 147.343 29.6721 146.205 30.7289C145.072 31.7857 143.753 32.5914 142.252 33.1402C140.752 33.6891 139.14 33.9693 137.424 33.9693C135.707 33.9693 134.113 33.6949 132.607 33.1402C131.106 32.5914 129.787 31.7857 128.654 30.7289C127.521 29.6721 126.628 28.3876 125.98 26.8754C125.332 25.3632 125.011 23.6583 125.011 21.7608ZM132.84 21.7316C132.84 22.7183 133.045 23.5649 133.459 24.2772C133.874 24.9895 134.428 25.5325 135.123 25.9062C135.818 26.2857 136.583 26.4725 137.424 26.4725C138.264 26.4725 139.029 26.2857 139.724 25.9062C140.419 25.5325 140.974 24.9837 141.388 24.2772C141.803 23.5707 142.007 22.7183 142.007 21.7316C142.007 20.7448 141.803 19.8924 141.388 19.1684C140.974 18.4444 140.419 17.8898 139.724 17.4986C139.029 17.1074 138.264 16.9089 137.424 16.9089C136.583 16.9089 135.818 17.1074 135.123 17.4986C134.428 17.8898 133.874 18.4503 133.459 19.1684C133.045 19.8924 132.84 20.7448 132.84 21.7316Z" fill="white"/>
<path d="M3.11192 47.3575C2.10768 47.3575 1.33698 46.9721 0.811508 46.2014C0.280194 45.4307 0.0174561 44.3156 0.0174561 42.8559C0.0174561 41.513 0.280194 40.4621 0.811508 39.7089C1.34282 38.9557 2.08433 38.582 3.03018 38.582C4.04027 38.582 4.8168 38.9615 5.34812 39.7147C5.88527 40.4679 6.14801 41.5481 6.14801 42.9435C6.14801 44.3389 5.88527 45.4307 5.35979 46.2014C4.83432 46.9721 4.08114 47.3575 3.11192 47.3575ZM3.04186 40.4737C2.35874 40.4737 2.0201 41.2736 2.0201 42.8793C2.0201 43.9127 2.10768 44.6016 2.277 44.9461C2.44632 45.2906 2.70322 45.4658 3.03018 45.4658C3.38634 45.4658 3.65492 45.2906 3.84759 44.9461C4.03443 44.6016 4.13368 43.9244 4.13368 42.9143C4.13368 41.2853 3.77169 40.4737 3.0477 40.4737H3.04186Z" fill="white"/>
<path d="M8.43675 38.8164H10.778C11.6013 38.8164 12.261 39.05 12.7632 39.5229C13.2653 39.9958 13.5105 40.6147 13.5105 41.3854C13.5105 42.197 13.2594 42.8334 12.7515 43.2946C12.2435 43.7559 11.5429 43.9836 10.6496 43.9836H10.3226V47.1598H8.43091V38.8222L8.43675 38.8164ZM10.3285 40.4162V42.3838C10.7547 42.378 11.0641 42.2962 11.2685 42.1386C11.4728 41.9868 11.5721 41.7416 11.5721 41.4088C11.5721 41.0526 11.4728 40.7957 11.2802 40.6497C11.0875 40.5038 10.7664 40.422 10.3343 40.4162H10.3285Z" fill="white"/>
<path d="M15.1979 38.8164H19.7111V40.7198H18.4091V47.154H16.494V40.7198H15.2037V38.8164H15.1979Z" fill="white"/>
<path d="M21.8364 38.8164H23.7281V47.154H21.8364V38.8164Z" fill="white"/>
<path d="M27.062 38.8164H29.45C29.7886 40.6147 30.0572 42.1619 30.2557 43.4581L30.46 42.1678C30.5418 41.6657 30.6352 41.1694 30.7286 40.6964L31.0965 38.8222H33.537L34.4887 47.1598H32.6145L32.1065 41.4263L30.9388 47.1598H29.6602L28.434 41.4146L27.9494 47.1598H26.157L27.0561 38.8222L27.062 38.8164Z" fill="white"/>
<path d="M36.9351 38.8164H38.8268V47.154H36.9351V38.8164Z" fill="white"/>
<path d="M41.1856 38.8164H46.5688L43.667 45.3732H46.3119V47.154H40.7769L43.6553 40.603H41.1914V38.8164H41.1856Z" fill="white"/>
<path d="M54.3925 47.154H52.4249L52.1038 45.7585H50.107L49.7742 47.154H47.8474L50.0544 38.8164H52.1738L54.3808 47.154H54.3925ZM51.7418 44.2638C51.4615 43.0202 51.2455 41.8408 51.1054 40.7198H51.082C50.9302 41.8758 50.72 43.0552 50.4514 44.2638H51.7418Z" fill="white"/>
<path d="M56.2258 38.8164H58.1351L60.5406 43.6274L60.4705 42.7283V38.8164H62.3622V47.154H60.418L58.065 42.4188L58.1175 43.4581V47.154H56.2258V38.8164Z" fill="white"/>
<path d="M65.0364 38.8164H66.8055C68.0316 38.8164 68.9599 39.1667 69.5963 39.8615C70.2327 40.5563 70.5539 41.5781 70.5539 42.921C70.5539 43.9369 70.3962 44.7601 70.0809 45.3849C69.7657 46.0096 69.3278 46.4592 68.7614 46.7394C68.1951 47.0197 67.5762 47.1598 66.8931 47.1598H65.0364V38.8222V38.8164ZM66.9281 40.5913V45.379C67.5003 45.3265 67.909 45.128 68.1425 44.7718C68.3819 44.4156 68.4987 43.8318 68.4987 43.0144C68.4987 42.5298 68.4578 42.1211 68.3761 41.7883C68.2943 41.4555 68.1717 41.1927 68.0024 41.0117C67.8389 40.8307 67.6754 40.7198 67.5236 40.6789C67.366 40.6381 67.1675 40.6089 66.9281 40.5972V40.5913Z" fill="white"/>
<path d="M75.4173 47.3575C74.4131 47.3575 73.6424 46.9721 73.1169 46.2014C72.5856 45.4307 72.3229 44.3156 72.3229 42.8559C72.3229 41.513 72.5856 40.4621 73.1169 39.7089C73.6482 38.9557 74.3897 38.582 75.3356 38.582C76.3457 38.582 77.1222 38.9615 77.6535 39.7147C78.1907 40.4679 78.4534 41.5481 78.4534 42.9435C78.4534 44.3389 78.1907 45.4307 77.6652 46.2014C77.1397 46.9721 76.3866 47.3575 75.4173 47.3575ZM75.3473 40.4737C74.6642 40.4737 74.3255 41.2736 74.3255 42.8793C74.3255 43.9127 74.4131 44.6016 74.5824 44.9461C74.7517 45.2906 75.0086 45.4658 75.3356 45.4658C75.6918 45.4658 75.9603 45.2906 76.153 44.9461C76.3398 44.6016 76.4391 43.9244 76.4391 42.9143C76.4391 41.2853 76.0771 40.4737 75.3531 40.4737H75.3473Z" fill="white"/>
<path d="M84.1345 38.8164H88.6478V40.7198H87.3458V47.154H85.4307V40.7198H84.1404V38.8164H84.1345Z" fill="white"/>
<path d="M90.6562 38.8164H92.5946V44.6901C92.5946 44.9645 92.6647 45.1805 92.8107 45.344C92.9566 45.5075 93.1493 45.5834 93.3945 45.5834C93.6397 45.5834 93.8499 45.4958 93.9959 45.3265C94.1419 45.1571 94.2178 44.9178 94.2178 44.62V38.8164H96.1445V44.2872C96.1445 45.0345 96.0453 45.6301 95.8526 46.0796C95.6599 46.5292 95.368 46.862 94.9885 47.0722C94.609 47.2824 94.0776 47.3875 93.3945 47.3875C92.3903 47.3875 91.678 47.1306 91.2634 46.611C90.8489 46.0972 90.6445 45.2214 90.6445 43.9953V38.8164H90.6562Z" fill="white"/>
<path d="M102.141 38.8164H106.654V40.7198H105.352V47.154H103.437V40.7198H102.147V38.8164H102.141Z" fill="white"/>
<path d="M108.709 38.8164H110.91C111.798 38.8164 112.504 39.0441 113.018 39.5054C113.532 39.9608 113.795 40.5855 113.795 41.3737C113.795 41.7766 113.695 42.1678 113.503 42.5473C113.31 42.9268 113.024 43.207 112.65 43.3997L114.162 47.1598H112.166L110.636 43.3647H110.607V47.1598H108.715V38.8222L108.709 38.8164ZM110.601 40.4279V42.4072C111.436 42.3896 111.856 42.0977 111.856 41.5255C111.856 41.1402 111.757 40.8599 111.564 40.6964C111.372 40.5271 111.051 40.4395 110.601 40.4279Z" fill="white"/>
<path d="M121.934 47.154H119.966L119.645 45.7585H117.648L117.315 47.154H115.389L117.596 38.8164H119.715L121.922 47.154H121.934ZM119.289 44.2638C119.009 43.0202 118.793 41.8408 118.652 40.7198H118.629C118.477 41.8758 118.267 43.0552 117.999 44.2638H119.289Z" fill="white"/>
<path d="M123.773 38.8164H125.694C126.815 38.8164 127.62 39.0383 128.111 39.4762C128.601 39.9141 128.847 40.4746 128.847 41.1519C128.847 41.8875 128.49 42.4714 127.772 42.921C128.584 43.2421 128.987 43.8493 128.987 44.7543C128.987 45.4724 128.736 46.0563 128.234 46.4942C127.731 46.9379 127.066 47.154 126.243 47.154H123.773V38.8164ZM125.665 40.4162V42.2145C126.511 42.1911 126.932 41.8992 126.932 41.3328C126.932 40.9942 126.832 40.7607 126.628 40.6264C126.424 40.4921 126.102 40.422 125.665 40.4162ZM125.665 43.7267V45.5308C126.143 45.525 126.499 45.4491 126.739 45.3089C126.978 45.1688 127.095 44.9411 127.095 44.62C127.095 44.0245 126.669 43.7267 125.816 43.7267H125.659H125.665Z" fill="white"/>
<path d="M137.003 47.154H135.035L134.714 45.7585H132.718L132.385 47.154H130.458L132.665 38.8164H134.784L136.991 47.154H137.003ZM134.352 44.2638C134.072 43.0202 133.856 41.8408 133.716 40.7198H133.693C133.541 41.8758 133.331 43.0552 133.062 44.2638H134.352Z" fill="white"/>
<path d="M139.736 38.8164H141.627V44.8126C141.627 45.5833 141.429 46.2022 141.026 46.6752C140.623 47.1481 140.092 47.3816 139.432 47.3816C139.017 47.3816 138.609 47.2649 138.2 47.0372V45.1396C138.58 45.3907 138.854 45.5133 139.017 45.5133C139.496 45.5133 139.736 45.2097 139.736 44.6025V38.8105V38.8164Z" fill="white"/>
<path d="M146.964 47.3575C145.96 47.3575 145.189 46.9721 144.663 46.2014C144.132 45.4307 143.869 44.3156 143.869 42.8559C143.869 41.513 144.132 40.4621 144.663 39.7089C145.195 38.9557 145.936 38.582 146.882 38.582C147.892 38.582 148.669 38.9615 149.2 39.7147C149.737 40.4679 150 41.5481 150 42.9435C150 44.3389 149.737 45.4307 149.212 46.2014C148.686 46.9721 147.933 47.3575 146.964 47.3575ZM146.894 40.4737C146.211 40.4737 145.872 41.2736 145.872 42.8793C145.872 43.9127 145.96 44.6016 146.129 44.9461C146.298 45.2906 146.555 45.4658 146.882 45.4658C147.238 45.4658 147.507 45.2906 147.7 44.9461C147.886 44.6016 147.986 43.9244 147.986 42.9143C147.986 41.2853 147.624 40.4737 146.9 40.4737H146.894Z" fill="white"/>
</svg>
