<svg width="24" height="24" viewBox="0 0 24 24" fill="none" xmlns="http://www.w3.org/2000/svg">
<path d="M16.3372 14.2167C17.3826 12.7438 17.9984 10.9451 17.9984 9.00238C17.9984 4.03139 13.9713 0 9.00026 0C4.02927 0 0 4.03139 0 9.00238C0 13.9734 4.02927 18.0005 9.00026 18.0005C10.9429 18.0005 12.7438 17.3847 14.2146 16.3372L21.8796 24L24 21.8796L16.3372 14.2167ZM9.00026 14.9997C5.68627 14.9997 3.00079 12.3143 3.00079 9.00026C3.00079 5.68627 5.68627 3.00079 9.00026 3.00079C12.3143 3.00079 14.9997 5.68627 14.9997 9.00026C14.9997 12.3143 12.3143 14.9997 9.00026 14.9997Z" fill="white"/>
</svg>
