<svg width="200" height="200" viewBox="0 0 200 200" fill="none" xmlns="http://www.w3.org/2000/svg">
<path d="M164.152 50.9521L150.474 64.6302V178.513H21.4876V49.5418H135.158L156.661 28.0391H0V200.001H171.961V43.1426L164.152 50.9521Z" fill="#1B3F8D"/>
<path d="M107.468 107.62V135.507H64.4779V92.5165H92.1676L102.904 81.7803H53.7568V146.228H118.189V96.9141L107.468 107.62Z" fill="#1B3F8D"/>
<path d="M128.971 86.1165V157.009H42.9906V71.0282H113.656L117.477 67.222L124.392 60.292H32.2695V167.73H139.692V75.4107L128.971 86.1165Z" fill="#1B3F8D"/>
<path d="M107.469 107.62L118.19 96.9141L107.469 107.635V107.62Z" fill="#1B3F8D"/>
<path d="M128.971 86.118L139.692 75.4121L128.971 86.1332V86.118Z" fill="#1B3F8D"/>
<path d="M199.894 15.2096L184.684 30.4193H177.087L128.971 78.52L118.189 89.3017L107.468 100.023L89.7261 117.765C87.6183 119.873 84.2215 119.873 82.1137 117.765C81.0673 116.718 80.5518 115.339 80.5518 113.959C80.5518 112.579 81.0673 111.214 82.1137 110.168L110.501 81.7803L121.268 71.0289L132.004 60.2927L164.258 28.0385L168.655 23.6409L169.49 22.8069V15.2096L184.684 0V15.331L192.281 15.2096H199.894Z" fill="#1B3F8D"/>
</svg>
