<svg width="18" height="24" viewBox="0 0 18 24" fill="none" xmlns="http://www.w3.org/2000/svg">
<path d="M8.5845 0C3.91057 0 0.120361 3.79021 0.120361 8.46413C0.120361 10.3114 0.712831 12.0209 1.71823 13.4133L1.72222 13.4213L7.96011 23.6709H7.99003C8.11371 23.8683 8.33315 24 8.5845 24C8.77999 24 8.95753 23.9202 9.0852 23.7925C9.12111 23.7566 9.15502 23.7147 9.18095 23.6709L9.20888 23.627L15.4488 13.4213L15.4528 13.4133C16.4582 12.0209 17.0506 10.3114 17.0506 8.46413C17.0506 3.79021 13.2604 0 8.5845 0ZM11.2835 13.4133C10.4816 13.8522 9.56197 14.1016 8.5845 14.1016C7.60702 14.1016 6.6874 13.8522 5.88547 13.4133C4.13599 12.4558 2.94706 10.5966 2.94706 8.46413C2.94706 5.35616 5.47652 2.8267 8.5845 2.8267C11.6925 2.8267 14.2239 5.35616 14.2239 8.46413C14.2239 10.5966 13.035 12.4558 11.2835 13.4133Z" fill="#1B3F8D"/>
</svg>
