<svg width="267" height="160" viewBox="0 0 267 160" fill="none" xmlns="http://www.w3.org/2000/svg">
<path d="M139.051 1.62267C135.533 -0.54089 131.131 -0.54089 127.612 1.62267L0 80L127.612 158.377C131.131 160.541 135.533 160.541 139.051 158.377L266.663 80L139.051 1.62267ZM135.439 132.734C134.141 133.525 132.523 133.525 131.243 132.734L42.3117 79.9812L131.243 27.2279C132.523 26.4566 134.141 26.4566 135.439 27.2279L224.352 79.9812L135.439 132.734Z" fill="#1B3F8D"/>
<path d="M133.332 53.2656C118.563 53.2656 106.598 65.2311 106.598 79.9997C106.598 94.7684 118.563 106.734 133.332 106.734C148.1 106.734 160.066 94.7684 160.066 79.9997C160.066 65.2311 148.1 53.2656 133.332 53.2656ZM124.094 79.9997C120.369 79.9997 117.152 77.7797 115.703 74.5814C115.177 73.415 114.876 72.1356 114.876 70.7811C114.876 65.7014 118.996 61.5624 124.094 61.5624C125.449 61.5624 126.728 61.8446 127.876 62.3902C131.093 63.82 133.313 67.056 133.313 70.7811C133.313 75.8795 129.193 79.9997 124.094 79.9997Z" fill="#1B3F8D"/>
</svg>
