<svg width="24" height="24" viewBox="0 0 24 24" fill="none" xmlns="http://www.w3.org/2000/svg">
<path d="M11.2068 0C11.8799 0 12.5497 0 13.2228 0C13.4706 0.0301398 13.7184 0.0569308 13.9629 0.0971172C15.8617 0.391818 17.5998 1.08169 19.1537 2.2136C21.25 3.74069 22.7202 5.73662 23.4837 8.21478C23.7349 9.02855 23.832 9.88921 23.9961 10.7264V12.6956C23.9291 13.1276 23.8856 13.5629 23.7952 13.9882C23.0484 17.4677 21.1161 20.0966 18.0452 21.8748C15.8048 23.1708 13.3702 23.6162 10.8049 23.3282C9.42853 23.1742 8.11578 22.7824 6.88339 22.1427C6.7193 22.0557 6.57195 22.0456 6.39446 22.1025C5.06495 22.5312 3.7321 22.9532 2.4026 23.3751C1.76967 23.576 1.14008 23.7803 0.503792 23.9712C0.128719 24.0817 -0.0789113 23.8641 0.0215548 23.489C0.0449969 23.4053 0.0717879 23.3249 0.0985789 23.2445C0.701376 21.4696 1.29747 19.6947 1.90697 17.9265C1.98399 17.7021 1.9706 17.5213 1.85339 17.3103C0.389931 14.6044 -0.0219805 11.7344 0.795144 8.77069C1.97395 4.48079 4.77695 1.70458 9.03002 0.418609C9.73328 0.204281 10.4801 0.137304 11.2068 0ZM3.75889 20.3042C3.90624 20.2674 3.99666 20.2473 4.08373 20.2205C4.9243 19.9526 5.76822 19.6914 6.60209 19.4134C6.84655 19.333 7.05083 19.3397 7.26516 19.4871C7.4393 19.6076 7.62349 19.7115 7.80768 19.8086C9.3917 20.6391 11.0728 21.0108 12.8645 20.8869C14.2844 20.7898 15.6072 20.3846 16.8396 19.6847C18.2896 18.8575 19.435 17.7222 20.2755 16.2789C20.9922 15.0498 21.4041 13.727 21.4945 12.3104C21.5983 10.6728 21.2902 9.11228 20.5568 7.63877C19.8 6.12174 18.715 4.89605 17.2917 3.97846C15.3996 2.75612 13.3233 2.28058 11.0829 2.54514C9.52565 2.72933 8.10573 3.28859 6.82646 4.19279C5.47352 5.15056 4.44541 6.3863 3.7522 7.89664C2.96856 9.60791 2.74084 11.3929 3.05228 13.2448C3.28001 14.5877 3.78569 15.8234 4.57937 16.9352C4.73342 17.1529 4.77025 17.3572 4.67314 17.6117C4.46885 18.1609 4.29136 18.7168 4.10383 19.2728C3.99332 19.5976 3.88615 19.9224 3.75889 20.3076V20.3042Z" fill="white"/>
<path d="M15.4297 17.3532C14.5389 17.3063 13.7318 17.0484 12.9247 16.7671C11.0024 16.094 9.51555 14.8449 8.25972 13.2843C7.62344 12.494 7.00725 11.6869 6.61543 10.7358C6.2504 9.84836 6.17003 8.94416 6.44129 8.01318C6.75608 6.94154 7.43255 6.3086 8.57117 6.21483C8.6348 6.21148 8.69508 6.19809 8.75536 6.18804C9.2242 6.11437 9.55239 6.26172 9.75332 6.69707C10.048 7.3434 10.2791 8.01987 10.6006 8.64946C10.9221 9.27905 10.7747 9.78808 10.3528 10.277C10.2255 10.4244 10.0849 10.565 9.9777 10.7258C9.93416 10.7894 9.91742 10.9267 9.9576 10.9836C10.8718 12.2796 11.9803 13.3546 13.4438 14.021C13.6514 14.1148 13.782 14.0914 13.9193 13.9072C14.1336 13.6192 14.3681 13.3479 14.5924 13.0666C14.9307 12.6447 15.2254 12.5676 15.721 12.7887C16.1363 12.9729 16.5448 13.1637 16.9534 13.358C17.2581 13.502 17.5595 13.646 17.8542 13.8034C18.3331 14.0579 18.4336 14.2622 18.3767 14.808C18.2293 16.1811 17.2347 17.169 15.8617 17.3063C15.7076 17.323 15.5502 17.3398 15.4263 17.3532H15.4297Z" fill="white"/>
</svg>
