<svg width="24" height="24" viewBox="0 0 24 24" fill="none" xmlns="http://www.w3.org/2000/svg">
<path d="M11.2104 0C11.8836 0 12.5533 0 13.2265 0C13.4743 0.0301398 13.7221 0.0569308 13.9666 0.0971172C15.8654 0.391818 17.6034 1.08169 19.1573 2.2136C21.2537 3.74069 22.7239 5.73662 23.4874 8.21478C23.7386 9.02855 23.8357 9.88921 23.9998 10.7264V12.6956C23.9328 13.1276 23.8893 13.5629 23.7988 13.9882C23.0521 17.4677 21.1198 20.0966 18.0488 21.8748C15.8084 23.1708 13.3738 23.6162 10.8086 23.3282C9.43219 23.1742 8.11944 22.7824 6.88705 22.1427C6.72296 22.0557 6.57561 22.0456 6.39812 22.1025C5.06862 22.5312 3.73577 22.9532 2.40626 23.3751C1.77333 23.576 1.14374 23.7803 0.507454 23.9712C0.132381 24.0817 -0.0752492 23.8641 0.0252169 23.489C0.048659 23.4053 0.07545 23.3249 0.102241 23.2445C0.705038 21.4696 1.30114 19.6947 1.91063 17.9265C1.98766 17.7021 1.97426 17.5213 1.85705 17.3103C0.393593 14.6044 -0.0183184 11.7344 0.798806 8.77069C1.97761 4.48079 4.78061 1.70458 9.03368 0.418609C9.73694 0.204281 10.4837 0.137304 11.2104 0ZM3.76256 20.3042C3.90991 20.2674 4.00033 20.2473 4.0874 20.2205C4.92796 19.9526 5.77188 19.6914 6.60575 19.4134C6.85021 19.333 7.0545 19.3397 7.26882 19.4871C7.44297 19.6076 7.62715 19.7115 7.81134 19.8086C9.39536 20.6391 11.0765 21.0108 12.8681 20.8869C14.2881 20.7898 15.6109 20.3846 16.8432 19.6847C18.2933 18.8575 19.4386 17.7222 20.2792 16.2789C20.9958 15.0498 21.4078 13.727 21.4982 12.3104C21.602 10.6728 21.2939 9.11228 20.5605 7.63877C19.8036 6.12174 18.7186 4.89605 17.2953 3.97846C15.4032 2.75612 13.3269 2.28058 11.0865 2.54514C9.52931 2.72933 8.10939 3.28859 6.83012 4.19279C5.47718 5.15056 4.44907 6.3863 3.75586 7.89664C2.97222 9.60791 2.7445 11.3929 3.05594 13.2448C3.28367 14.5877 3.78935 15.8234 4.58303 16.9352C4.73708 17.1529 4.77392 17.3572 4.6768 17.6117C4.47252 18.1609 4.29503 18.7168 4.10749 19.2728C3.99698 19.5976 3.88981 19.9224 3.76256 20.3076V20.3042Z" fill="#1B3F8D"/>
<path d="M15.4333 17.3532C14.5425 17.3063 13.7354 17.0484 12.9284 16.7671C11.0061 16.094 9.51921 14.8449 8.26339 13.2843C7.6271 12.494 7.01091 11.6869 6.61909 10.7358C6.25406 9.84836 6.17369 8.94416 6.44495 8.01318C6.75974 6.94154 7.43622 6.3086 8.57483 6.21483C8.63846 6.21148 8.69874 6.19809 8.75902 6.18804C9.22786 6.11437 9.55605 6.26172 9.75698 6.69707C10.0517 7.3434 10.2828 8.01987 10.6042 8.64946C10.9257 9.27905 10.7784 9.78808 10.3564 10.277C10.2292 10.4244 10.0885 10.565 9.98136 10.7258C9.93782 10.7894 9.92108 10.9267 9.96126 10.9836C10.8755 12.2796 11.984 13.3546 13.4474 14.021C13.6551 14.1148 13.7857 14.0914 13.923 13.9072C14.1373 13.6192 14.3717 13.3479 14.5961 13.0666C14.9343 12.6447 15.229 12.5676 15.7247 12.7887C16.1399 12.9729 16.5485 13.1637 16.9571 13.358C17.2618 13.502 17.5632 13.646 17.8579 13.8034C18.3368 14.0579 18.4373 14.2622 18.3803 14.808C18.233 16.1811 17.2384 17.169 15.8653 17.3063C15.7113 17.323 15.5539 17.3398 15.43 17.3532H15.4333Z" fill="#1B3F8D"/>
</svg>
